<svg width="44" height="45" viewBox="0 0 44 45" fill="none" xmlns="http://www.w3.org/2000/svg">
    <path fill-rule="evenodd" clip-rule="evenodd"
        d="M16.5001 40.4225H27.5001C36.6667 40.4225 40.3334 36.7559 40.3334 27.5892V16.5892C40.3334 7.42253 36.6667 3.75586 27.5001 3.75586H16.5001C7.33341 3.75586 3.66675 7.42253 3.66675 16.5892V27.5892C3.66675 36.7559 7.33341 40.4225 16.5001 40.4225ZM10.9994 13.473C10.9994 12.1163 11.9906 11.0896 13.494 11.0896C14.9974 11.0896 15.9502 12.1163 15.9502 13.473C15.9869 14.7931 14.9968 15.8553 13.4201 15.8553C11.9533 15.8553 10.9994 14.7931 10.9994 13.473ZM22.8949 19.866C23.5273 18.8406 25.0626 17.3965 27.5736 17.3965C30.6537 17.3965 33.0011 19.4867 33.0011 24.0336V32.0896C33.0011 32.6418 32.5534 33.0896 32.0011 33.0896H29.2708C28.7185 33.0896 28.2708 32.6418 28.2708 32.0896V24.583C28.2708 22.6029 27.6108 21.2456 25.8874 21.2456C24.604 21.2456 23.8334 22.1629 23.4667 23.0429C23.3567 23.373 23.32 23.8124 23.32 24.2524V32.0896C23.32 32.6418 22.8723 33.0896 22.32 33.0896H19.627C19.0747 33.0896 18.627 32.6418 18.627 32.0896V22.6402C18.627 21.2325 18.5873 19.9846 18.5518 18.8672L18.5482 18.7526C18.5303 18.1903 18.9816 17.7266 19.5442 17.7266H21.684C22.197 17.7266 22.6268 18.1148 22.6788 18.6251L22.8032 19.8448C22.8058 19.8702 22.8272 19.8894 22.8526 19.8894C22.87 19.8894 22.8858 19.8808 22.8949 19.866ZM11.1105 18.7266C11.1105 18.1743 11.5582 17.7266 12.1105 17.7266H14.8035C15.3558 17.7266 15.8035 18.1743 15.8035 18.7266V32.0896C15.8035 32.6418 15.3558 33.0896 14.8035 33.0896H12.1105C11.5582 33.0896 11.1105 32.6418 11.1105 32.0896V18.7266Z"
        fill="white" />
</svg>
    