<svg width="44" height="45" viewBox="0 0 44 45" fill="none" xmlns="http://www.w3.org/2000/svg">
    <path fill-rule="evenodd" clip-rule="evenodd"
        d="M16.5001 40.4225H27.5001C36.6667 40.4225 40.3334 36.7559 40.3334 27.5892V16.5892C40.3334 7.42253 36.6667 3.75586 27.5001 3.75586H16.5001C7.33341 3.75586 3.66675 7.42253 3.66675 16.5892V27.5892C3.66675 36.7559 7.33341 40.4225 16.5001 40.4225ZM30.6452 11.1948H29.1167C29.1153 11.1948 29.1139 11.1954 29.113 11.1965L22.9657 18.2247L17.9486 11.5916C17.7596 11.3417 17.4644 11.1948 17.1511 11.1948H11.972C11.1437 11.1948 10.6745 12.1442 11.1776 12.8022L19.149 23.2271L11.8791 31.5364C11.3133 32.1829 11.7725 33.1948 12.6317 33.1948H13.7087C13.997 33.1948 14.2713 33.0704 14.4612 32.8534L20.8932 25.5039L26.4755 32.8023C26.6647 33.0497 26.9584 33.1948 27.2698 33.1948H32.277C33.103 33.1948 33.5728 32.2503 33.0746 31.5916L24.6953 20.5138L31.3978 12.8533C31.9635 12.2067 31.5043 11.1948 30.6452 11.1948ZM29.8749 30.961H27.8069L14.3068 13.3113H16.526L29.8749 30.961Z"
        fill="white" />
</svg>
    