<svg width="44" height="45" viewBox="0 0 44 45" fill="none" xmlns="http://www.w3.org/2000/svg">
    <path
        d="M40.3334 29.7718C40.3334 36.4452 36.3551 40.4235 29.6818 40.4235H27.5001C26.4917 40.4235 25.6667 39.5985 25.6667 38.5902V28.0119C25.6667 27.5169 26.0701 27.0952 26.5651 27.0952L29.7917 27.0402C30.0484 27.0219 30.2684 26.8385 30.3234 26.5819L30.9651 23.0802C31.0201 22.7502 30.7634 22.4385 30.4151 22.4385L26.5101 22.4935C25.9967 22.4935 25.5934 22.0902 25.5751 21.5952L25.5018 17.1035C25.5018 16.8102 25.7401 16.5535 26.0517 16.5535L30.4517 16.4802C30.7634 16.4802 31.0018 16.2419 31.0018 15.9302L30.9284 11.5302C30.9284 11.2185 30.6901 10.9802 30.3784 10.9802L25.4284 11.0535C22.3851 11.1085 19.9651 13.6018 20.0201 16.6452L20.1117 21.6868C20.1301 22.2002 19.7268 22.6035 19.2134 22.6219L17.0134 22.6585C16.7017 22.6585 16.4634 22.8968 16.4634 23.2085L16.5184 26.6919C16.5184 27.0035 16.7567 27.2418 17.0684 27.2418L19.2684 27.2052C19.7818 27.2052 20.1851 27.6085 20.2034 28.1035L20.3684 38.5535C20.3867 39.5802 19.5617 40.4235 18.5351 40.4235H14.3184C7.64508 40.4235 3.66675 36.4452 3.66675 29.7535V14.4085C3.66675 7.73516 7.64508 3.75684 14.3184 3.75684H29.6818C36.3551 3.75684 40.3334 7.73516 40.3334 14.4085V29.7718Z"
        fill="white" />
</svg>
    